<svg aria-hidden="true" style="position: absolute; width: 0; height: 0; overflow: hidden;" version="1.1" xmlns="http://www.w3.org/2000/svg" xmlns:xlink="http://www.w3.org/1999/xlink">
<defs>
<symbol id="icon-ukraine" viewBox="0 0 32 32">
<path fill="#ffda44" style="fill: var(--color1, #ffda44)" d="M16 32c8.837 0 16-7.163 16-16s-7.163-16-16-16c-8.837 0-16 7.163-16 16s7.163 16 16 16z"></path>
<path fill="#338af3" style="fill: var(--color2, #338af3)" d="M0 16c0-8.836 7.163-16 16-16s16 7.163 16 16z"></path>
</symbol>
<symbol id="icon-log-in-01" viewBox="0 0 32 32">
<path fill="none" stroke="#e0a39a" style="stroke: var(--color1, #e0a39a)" stroke-linejoin="round" stroke-linecap="round" stroke-miterlimit="4" stroke-width="3.2" d="M20 4h1.6c2.24 0 3.36 0 4.216 0.436 0.753 0.383 1.364 0.995 1.748 1.748 0.436 0.856 0.436 1.976 0.436 4.216v11.2c0 2.24 0 3.36-0.436 4.216-0.384 0.753-0.995 1.364-1.748 1.748-0.856 0.436-1.976 0.436-4.216 0.436h-1.6"></path>
<path fill="none" stroke="#e0a39a" style="stroke: var(--color1, #e0a39a)" stroke-linejoin="round" stroke-linecap="round" stroke-miterlimit="4" stroke-width="3.2" d="M13.333 9.333l6.667 6.667M20 16l-6.667 6.667M20 16h-16"></path>
</symbol>
<symbol id="icon-Mac-2" viewBox="0 0 41 32">
<path fill="#000" style="fill: var(--color1, #000)" d="M2.322 0c-0.373 0-0.676 0.303-0.676 0.677v24.673c0 0.374 0.302 0.677 0.676 0.677h36.514c0.373 0 0.676-0.303 0.676-0.677v-24.673c0-0.374-0.302-0.677-0.676-0.677h-36.514z"></path>
<path fill="#000" style="fill: var(--color1, #000)" d="M21.799 6.988c0 0.294-0.105 0.568-0.315 0.822-0.253 0.302-0.559 0.476-0.891 0.449-0.004-0.035-0.007-0.072-0.007-0.111 0-0.282 0.12-0.584 0.334-0.83 0.107-0.125 0.242-0.229 0.407-0.312 0.164-0.082 0.319-0.127 0.465-0.134 0.002 0.017 0.003 0.035 0.004 0.052 0.001 0.022 0.002 0.043 0.002 0.065z"></path>
<path fill="#000" style="fill: var(--color1, #000)" d="M22.909 11.447c-0.087 0.205-0.19 0.394-0.309 0.568-0.163 0.237-0.296 0.401-0.399 0.491-0.159 0.149-0.33 0.226-0.512 0.23-0.131 0-0.289-0.038-0.473-0.115s-0.354-0.115-0.509-0.115c-0.163 0-0.337 0.038-0.524 0.115s-0.337 0.117-0.453 0.121c-0.175 0.008-0.35-0.071-0.524-0.236-0.111-0.099-0.25-0.269-0.417-0.509-0.179-0.257-0.326-0.554-0.441-0.893-0.123-0.366-0.185-0.721-0.185-1.065 0-0.394 0.083-0.733 0.25-1.017 0.131-0.228 0.306-0.409 0.524-0.541s0.454-0.2 0.709-0.204c0.139 0 0.321 0.044 0.548 0.13s0.371 0.13 0.435 0.13c0.048 0 0.209-0.051 0.482-0.154 0.258-0.095 0.477-0.134 0.655-0.119 0.484 0.040 0.848 0.235 1.090 0.585-0.433 0.268-0.647 0.643-0.643 1.124 0.004 0.375 0.137 0.686 0.399 0.934 0.119 0.115 0.251 0.204 0.399 0.267-0.032 0.095-0.066 0.185-0.102 0.272z"></path>
<path fill="#7f5b52" style="fill: var(--color2, #7f5b52)" d="M37.536 24.601c-0.278 0-0.503-0.226-0.503-0.504s0.225-0.504 0.503-0.504c0.278 0 0.503 0.226 0.503 0.504s-0.225 0.504-0.503 0.504zM37.536 24.656c0.308 0 0.557-0.25 0.557-0.559s-0.25-0.558-0.557-0.558c-0.308 0-0.557 0.25-0.557 0.558s0.25 0.559 0.557 0.559z"></path>
<path fill="#dcaea0" style="fill: var(--color3, #dcaea0)" d="M37.536 24.108c0.019 0 0.031-0.013 0.031-0.033v-0.233c0-0.020-0.013-0.033-0.031-0.033s-0.032 0.013-0.032 0.033v0.233c0 0.019 0.013 0.033 0.032 0.033zM37.536 24.385c0.157 0 0.287-0.126 0.287-0.279 0-0.081-0.036-0.151-0.087-0.199-0.031-0.030-0.075 0.009-0.043 0.041 0.043 0.040 0.069 0.095 0.069 0.157 0 0.122-0.101 0.22-0.225 0.22s-0.225-0.098-0.225-0.22c0-0.062 0.026-0.118 0.069-0.158 0.032-0.032-0.013-0.071-0.043-0.041-0.051 0.047-0.087 0.118-0.087 0.199 0 0.153 0.13 0.279 0.287 0.279z"></path>
<path fill="#7f5b52" style="fill: var(--color2, #7f5b52)" d="M16.086 31.492h8.985v0.135h-8.985v-0.135z"></path>
<path fill="#dcaea0" style="fill: var(--color3, #dcaea0)" d="M16.086 31.628h8.985v0.305c0 0.037-0.030 0.068-0.068 0.068h-8.85c-0.037 0-0.068-0.030-0.068-0.068v-0.305z"></path>
<path fill="#000" style="fill: var(--color1, #000)" d="M16.289 19.071h8.58c0.112 0 0.203 0.091 0.203 0.203v12.218h-8.985v-12.218c0-0.112 0.091-0.203 0.203-0.203zM20.587 22.591c-0.518 0-0.937 0.42-0.937 0.939v1.557c0 0.519 0.42 0.939 0.937 0.939s0.937-0.42 0.937-0.939v-1.557c0-0.519-0.42-0.939-0.937-0.939z"></path>
<path fill="#535962" style="fill: var(--color4, #535962)" d="M21.119 24.326c0 0.304-0.246 0.55-0.549 0.55s-0.549-0.246-0.549-0.55c0-0.304 0.246-0.55 0.549-0.55s0.549 0.246 0.549 0.55z"></path>
<path fill="#252221" style="fill: var(--color5, #252221)" d="M20.951 24.326c0 0.21-0.17 0.381-0.38 0.381s-0.38-0.17-0.38-0.381c0-0.21 0.17-0.381 0.38-0.381s0.38 0.17 0.38 0.381z"></path>
<path fill="#9a9b9d" style="fill: var(--color6, #9a9b9d)" d="M20.883 24.326c0 0.173-0.14 0.313-0.312 0.313s-0.312-0.14-0.312-0.313c0-0.173 0.14-0.313 0.312-0.313s0.312 0.14 0.312 0.313z"></path>
<path fill="#252221" style="fill: var(--color5, #252221)" d="M20.782 24.326c0 0.117-0.095 0.212-0.211 0.212s-0.211-0.095-0.211-0.212c0-0.117 0.095-0.212 0.211-0.212s0.211 0.095 0.211 0.212z"></path>
<path fill="#202021" style="fill: var(--color7, #202021)" d="M7.389 23.776c0.075 0 0.135 0.061 0.135 0.135v0.406c0 0.075-0.061 0.135-0.135 0.135s-0.135-0.061-0.135-0.135v-0.406c0-0.075 0.061-0.135 0.135-0.135zM7.389 23.911c-0.009 0-0.017 0.008-0.017 0.017v0.372c0 0.009 0.008 0.017 0.017 0.017s0.017-0.008 0.017-0.017v-0.372c0-0.009-0.008-0.017-0.017-0.017z"></path>
<path fill="#202021" style="fill: var(--color7, #202021)" d="M8.419 23.776c0.075 0 0.135 0.061 0.135 0.135v0.406c0 0.075-0.060 0.135-0.135 0.135s-0.135-0.061-0.135-0.135v-0.406c0-0.075 0.060-0.135 0.135-0.135zM8.419 23.911c-0.009 0-0.017 0.008-0.017 0.017v0.372c0 0.009 0.008 0.017 0.017 0.017s0.017-0.008 0.017-0.017v-0.372c0-0.009-0.008-0.017-0.017-0.017z"></path>
<path fill="#202021" style="fill: var(--color7, #202021)" d="M9.449 23.776c0.075 0 0.135 0.061 0.135 0.135v0.406c0 0.075-0.060 0.135-0.135 0.135s-0.135-0.061-0.135-0.135v-0.406c0-0.075 0.060-0.135 0.135-0.135zM9.449 23.911c-0.009 0-0.017 0.008-0.017 0.017v0.372c0 0.009 0.008 0.017 0.017 0.017s0.017-0.008 0.017-0.017v-0.372c0-0.009-0.008-0.017-0.017-0.017z"></path>
<path fill="#202021" style="fill: var(--color7, #202021)" d="M10.479 23.776c0.075 0 0.135 0.061 0.135 0.135v0.406c0 0.075-0.061 0.135-0.135 0.135s-0.135-0.061-0.135-0.135v-0.406c0-0.075 0.060-0.135 0.135-0.135zM10.479 23.911c-0.009 0-0.017 0.008-0.017 0.017v0.372c0 0.009 0.008 0.017 0.017 0.017s0.017-0.008 0.017-0.017v-0.372c0-0.009-0.008-0.017-0.017-0.017z"></path>
<path fill="#dcaea0" style="fill: var(--color3, #dcaea0)" d="M9.42 23.568l0.009 0.004c0.021-0.018 0.047-0.033 0.081-0.044l0.007-0.017c-0.012 0-0.024 0.001-0.034 0.003s-0.019 0.003-0.026 0.005l0.077-0.184-0.132 0.063 0.044-0.141-0.023-0.005-0.058 0.187 0.125-0.059-0.053 0.131c-0.007-0.014-0.019-0.030-0.036-0.049l-0.007 0.017c0.016 0.031 0.025 0.061 0.027 0.089z"></path>
<path fill="#dcaea0" style="fill: var(--color3, #dcaea0)" d="M10.451 23.568l0.009 0.004c0.021-0.018 0.047-0.033 0.080-0.044l0.007-0.017c-0.012 0-0.024 0.001-0.034 0.003s-0.019 0.003-0.026 0.005l0.077-0.184-0.132 0.063 0.044-0.141-0.023-0.005-0.058 0.187 0.125-0.059-0.053 0.131c-0.007-0.014-0.019-0.030-0.036-0.049l-0.007 0.017c0.016 0.031 0.025 0.061 0.027 0.089z"></path>
</symbol>
</defs>
</svg>
